<svg width="14" height="15" viewBox="0 0 14 15" fill="none" xmlns="http://www.w3.org/2000/svg">
<path d="M13.3245 9.38243L11.7733 8.20667C11.8328 7.89123 11.8628 7.57098 11.8632 7.25V7.25C11.8622 6.92896 11.8315 6.6087 11.7715 6.29333L13.3236 5.11803C13.3691 5.08367 13.4004 5.03384 13.4117 4.97796C13.423 4.92207 13.4134 4.864 13.3847 4.8147L12.1546 2.6846C12.1262 2.63535 12.0807 2.59818 12.0268 2.5801C11.9729 2.56201 11.9142 2.56424 11.8618 2.58637L10.0651 3.34563C9.57825 2.92605 9.01769 2.60055 8.41195 2.3857L8.17045 0.4544C8.1634 0.397977 8.13598 0.346071 8.09336 0.308433C8.05074 0.270795 7.99584 0.250016 7.93898 0.25H5.47825C5.42138 0.250016 5.36649 0.270795 5.32386 0.308433C5.28124 0.346071 5.25383 0.397977 5.24678 0.4544L5.00528 2.3857C4.39945 2.6003 3.83879 2.92565 3.35188 3.34517L1.55521 2.5859C1.50282 2.56377 1.44414 2.56154 1.39022 2.57963C1.33629 2.59772 1.29083 2.63488 1.26238 2.68413L0.0315464 4.8154C0.00292234 4.8647 -0.00666312 4.92277 0.00459963 4.97866C0.0158624 5.03454 0.047194 5.08437 0.0926797 5.11873L1.64528 6.29333C1.52537 6.92548 1.52537 7.57452 1.64528 8.20667L0.0926797 9.38197C0.047194 9.41633 0.0158624 9.46616 0.00459963 9.52204C-0.00666312 9.57793 0.00292234 9.636 0.0315464 9.6853L1.26168 11.8161C1.29013 11.8654 1.33559 11.9025 1.38952 11.9206C1.44344 11.9387 1.50212 11.9365 1.55451 11.9143L3.35118 11.1551C3.83828 11.5746 4.39919 11.8999 5.00528 12.1143L5.24655 14.0456C5.2536 14.102 5.28101 14.1539 5.32363 14.1916C5.36625 14.2292 5.42115 14.25 5.47801 14.25H7.93898C7.99584 14.25 8.05074 14.2292 8.09336 14.1916C8.13598 14.1539 8.1634 14.102 8.17045 14.0456L8.41195 12.1143C9.01777 11.8997 9.57843 11.5744 10.0653 11.1548L11.862 11.9141C11.9144 11.9362 11.9731 11.9385 12.027 11.9204C12.0809 11.9023 12.1264 11.8651 12.1548 11.8159L13.385 9.68507C13.4135 9.63591 13.4231 9.57805 13.4119 9.52233C13.4008 9.46661 13.3697 9.41687 13.3245 9.38243ZM6.70861 9.81667C6.20097 9.81667 5.70474 9.66613 5.28265 9.3841C4.86056 9.10208 4.53159 8.70122 4.33732 8.23222C4.14306 7.76322 4.09223 7.24715 4.19126 6.74927C4.2903 6.25138 4.53475 5.79405 4.89371 5.43509C5.25266 5.07614 5.71 4.83169 6.20788 4.73265C6.70577 4.63362 7.22184 4.68444 7.69083 4.87871C8.15983 5.07297 8.56069 5.40195 8.84272 5.82404C9.12475 6.24612 9.27528 6.74236 9.27528 7.25C9.27528 7.93072 9.00486 8.58356 8.52352 9.06491C8.04218 9.54625 7.38934 9.81667 6.70861 9.81667Z" fill="#DA021B"/>
</svg>
