<svg width="14" height="15" viewBox="0 0 14 15" fill="none" xmlns="http://www.w3.org/2000/svg">
<path d="M13.8245 9.88243L12.2733 8.70667C12.3328 8.39123 12.3628 8.07098 12.3632 7.75V7.75C12.3622 7.42896 12.3315 7.1087 12.2715 6.79333L13.8236 5.61803C13.8691 5.58367 13.9004 5.53384 13.9117 5.47796C13.923 5.42207 13.9134 5.364 13.8847 5.3147L12.6546 3.1846C12.6262 3.13535 12.5807 3.09818 12.5268 3.0801C12.4729 3.06201 12.4142 3.06424 12.3618 3.08637L10.5651 3.84563C10.0783 3.42605 9.51769 3.10055 8.91195 2.8857L8.67045 0.9544C8.6634 0.897977 8.63598 0.846071 8.59336 0.808433C8.55074 0.770795 8.49584 0.750016 8.43898 0.75H5.97825C5.92138 0.750016 5.86649 0.770795 5.82386 0.808433C5.78124 0.846071 5.75383 0.897977 5.74678 0.9544L5.50528 2.8857C4.89945 3.1003 4.33879 3.42565 3.85188 3.84517L2.05521 3.0859C2.00282 3.06377 1.94414 3.06154 1.89022 3.07963C1.83629 3.09772 1.79083 3.13488 1.76238 3.18413L0.531546 5.3154C0.502922 5.3647 0.493337 5.42277 0.5046 5.47866C0.515862 5.53454 0.547194 5.58437 0.59268 5.61873L2.14528 6.79333C2.02537 7.42548 2.02537 8.07452 2.14528 8.70667L0.59268 9.88197C0.547194 9.91633 0.515862 9.96616 0.5046 10.022C0.493337 10.0779 0.502922 10.136 0.531546 10.1853L1.76168 12.3161C1.79013 12.3654 1.83559 12.4025 1.88952 12.4206C1.94344 12.4387 2.00212 12.4365 2.05451 12.4143L3.85118 11.6551C4.33828 12.0746 4.89919 12.3999 5.50528 12.6143L5.74655 14.5456C5.7536 14.602 5.78101 14.6539 5.82363 14.6916C5.86625 14.7292 5.92115 14.75 5.97801 14.75H8.43898C8.49584 14.75 8.55074 14.7292 8.59336 14.6916C8.63598 14.6539 8.6634 14.602 8.67045 14.5456L8.91195 12.6143C9.51777 12.3997 10.0784 12.0744 10.5653 11.6548L12.362 12.4141C12.4144 12.4362 12.4731 12.4385 12.527 12.4204C12.5809 12.4023 12.6264 12.3651 12.6548 12.3159L13.885 10.1851C13.9135 10.1359 13.9231 10.0781 13.9119 10.0223C13.9008 9.96661 13.8697 9.91687 13.8245 9.88243ZM7.20861 10.3167C6.70097 10.3167 6.20474 10.1661 5.78265 9.8841C5.36056 9.60208 5.03159 9.20122 4.83732 8.73222C4.64306 8.26322 4.59223 7.74715 4.69126 7.24927C4.7903 6.75138 5.03475 6.29405 5.39371 5.93509C5.75266 5.57614 6.21 5.33169 6.70788 5.23265C7.20577 5.13362 7.72184 5.18444 8.19083 5.37871C8.65983 5.57297 9.06069 5.90195 9.34272 6.32404C9.62475 6.74612 9.77528 7.24236 9.77528 7.75C9.77528 8.43072 9.50486 9.08356 9.02352 9.56491C8.54218 10.0463 7.88934 10.3167 7.20861 10.3167Z" fill="#82929E"/>
</svg>
