<svg width="90" height="49" viewBox="0 0 90 49" fill="none" xmlns="http://www.w3.org/2000/svg">
<path d="M22.756 0.911377C18.3607 0.911377 3.93471 10.127 2.17661 12.8792C0.418516 15.6315 0.48884 34.0643 2.17661 36.8197C3.86439 39.5752 19.187 48.7908 22.756 48.7908C26.3249 48.7908 41.6491 39.6966 43.3369 36.8197C45.0247 33.9429 45.3252 15.4029 43.3369 12.8824C41.3487 10.362 27.1528 0.911377 22.756 0.911377Z" fill="#D9011A"/>
<path d="M22.756 0.911377C18.3607 0.911377 3.93471 10.127 2.17661 12.8792C0.418516 15.6315 0.48884 34.0643 2.17661 36.8197C3.86439 39.5752 19.187 48.7908 22.756 48.7908C26.3249 48.7908 41.6491 39.6966 43.3369 36.8197C45.0247 33.9429 45.3252 15.4029 43.3369 12.8824C41.3487 10.362 27.1528 0.911377 22.756 0.911377Z" fill="url(#paint0_angular_5_495)"/>
<path fill-rule="evenodd" clip-rule="evenodd" d="M26.8044 32.1001H28.596C28.8406 32.1001 28.9429 31.9402 28.8406 31.7133L26.0308 25.8908C26.015 25.8689 26.0085 25.8417 26.0127 25.815C26.0169 25.7884 26.0315 25.7645 26.0532 25.7485C26.0647 25.7401 26.0777 25.7342 26.0916 25.731C27.7617 25.2419 28.8086 23.8786 28.8086 21.9846C28.8086 19.5009 27.1176 17.8291 24.594 17.8291H19.0719C18.9925 17.8238 18.9142 17.8503 18.8542 17.9028C18.7943 17.9552 18.7576 18.0293 18.7523 18.1088C18.7506 18.1221 18.7506 18.1355 18.7523 18.1488V31.7708C18.7466 31.8499 18.7725 31.928 18.8243 31.9879C18.8762 32.0478 18.9497 32.0847 19.0288 32.0905H20.7869C20.8659 32.0962 20.944 32.0703 21.004 32.0184C21.0639 31.9666 21.1008 31.893 21.1065 31.814C21.1081 31.7996 21.1081 31.7852 21.1065 31.7708V26.0746C21.1059 26.059 21.1083 26.0435 21.1137 26.0289C21.119 26.0143 21.1272 26.0009 21.1378 25.9895C21.1483 25.9781 21.161 25.9688 21.1751 25.9623C21.1892 25.9558 21.2045 25.9521 21.22 25.9515H23.6174C23.6468 25.9478 23.6766 25.9537 23.7022 25.9684C23.7279 25.9831 23.7481 26.0058 23.7597 26.033L26.4176 31.8491C26.4448 31.9282 26.4976 31.9958 26.5677 32.0413C26.6378 32.0868 26.7211 32.1075 26.8044 32.1001ZM21.2264 19.8621H24.2631C25.5657 19.8621 26.4416 20.738 26.4416 22.0198C26.4416 23.2632 25.5657 24.1183 24.2631 24.1183H21.2264C21.2122 24.1203 21.1978 24.1195 21.1839 24.116C21.1701 24.1124 21.1571 24.1061 21.1456 24.0975C21.1342 24.0889 21.1246 24.0781 21.1173 24.0658C21.1101 24.0534 21.1053 24.0398 21.1033 24.0256C21.1018 24.0155 21.1018 24.0053 21.1033 23.9952V19.9868C21.1013 19.9726 21.1021 19.9582 21.1057 19.9443C21.1092 19.9304 21.1155 19.9174 21.1241 19.906C21.1327 19.8945 21.1435 19.8849 21.1559 19.8777C21.1682 19.8704 21.1819 19.8657 21.196 19.8637L21.2264 19.8621ZM34.3754 21.5323C32.0339 21.5323 30.3637 22.6926 30.1192 24.3005C30.1 24.4427 30.2215 24.545 30.4261 24.5658L32.2577 24.7896C32.4607 24.8103 32.563 24.7288 32.6237 24.5243C32.8283 23.9345 33.4596 23.5653 34.4361 23.5653C35.7147 23.5653 36.3301 24.2046 36.3301 25.2339V25.7022C36.3321 25.7164 36.3313 25.7308 36.3278 25.7447C36.3242 25.7585 36.3179 25.7715 36.3093 25.783C36.3007 25.7944 36.2899 25.804 36.2776 25.8113C36.2652 25.8185 36.2516 25.8233 36.2374 25.8252H34.0493C31.3419 25.8252 29.8139 27.0879 29.8139 29.1816C29.8139 31.3185 31.3627 32.2551 33.255 32.2551C34.4777 32.2551 35.475 31.8891 36.1878 31.197C36.2693 31.1363 36.3301 31.1555 36.3301 31.2578V31.7676C36.3244 31.8467 36.3503 31.9248 36.4021 31.9847C36.454 32.0447 36.5275 32.0815 36.6066 32.0873H38.3647C38.4437 32.093 38.5218 32.0671 38.5818 32.0152C38.6417 31.9634 38.6786 31.8898 38.6843 31.8108C38.6859 31.7964 38.6859 31.782 38.6843 31.7676V24.9925C38.6843 22.9979 36.9934 21.5323 34.369 21.5323H34.3754ZM33.9071 30.3883C32.929 30.3883 32.1762 29.92 32.1762 29.025C32.1762 28.0069 33.092 27.4571 34.5176 27.4571H36.2054C36.234 27.4534 36.2628 27.4611 36.2858 27.4784C36.3088 27.4957 36.3241 27.5213 36.3285 27.5498C36.3301 27.5593 36.3301 27.569 36.3285 27.5786V28.5151C36.3285 29.6339 35.1889 30.3883 33.9055 30.3883H33.9071ZM45.4274 21.5323C44.3486 21.5323 43.5095 21.8775 42.9229 22.6319C42.8622 22.7134 42.8015 22.6719 42.8015 22.5696V22.0198C42.8072 21.9407 42.7813 21.8626 42.7294 21.8027C42.6776 21.7427 42.604 21.7058 42.525 21.7001H40.7669C40.6878 21.6944 40.6097 21.7203 40.5498 21.7722C40.4898 21.824 40.453 21.8976 40.4472 21.9766C40.4456 21.991 40.4456 22.0054 40.4472 22.0198V31.7692C40.4415 31.8483 40.4674 31.9264 40.5193 31.9863C40.5711 32.0463 40.6447 32.0831 40.7237 32.0889H42.4818C42.5609 32.0946 42.639 32.0687 42.6989 32.0168C42.7589 31.965 42.7958 31.8914 42.8015 31.8124C42.8031 31.798 42.8031 31.7836 42.8015 31.7692V25.6462C42.8015 24.4044 43.6006 23.5685 44.7562 23.5685C45.9117 23.5685 46.7109 24.4236 46.7109 25.6654V31.774C46.7051 31.8531 46.7311 31.9312 46.7829 31.9911C46.8348 32.051 46.9083 32.0879 46.9874 32.0937C47.0017 32.0953 47.0162 32.0953 47.0305 32.0937H48.7407C48.8197 32.0994 48.8978 32.0735 48.9577 32.0216C49.0177 31.9698 49.0546 31.8962 49.0603 31.8172C49.0619 31.8028 49.0619 31.7884 49.0603 31.774V25.1779C49.0603 22.918 47.6219 21.5339 45.4163 21.5339L45.4274 21.5323ZM57.2339 18.1759V22.4913C57.2339 22.5935 57.1524 22.6143 57.0916 22.5328C56.8021 22.2066 56.4445 21.9479 56.0441 21.775C55.6436 21.6021 55.2101 21.5192 54.7741 21.5323C52.7587 21.5323 51.4353 22.6319 50.8456 24.382C50.5981 25.1861 50.481 26.0246 50.4988 26.8657C50.4873 27.7283 50.6108 28.5873 50.8648 29.4118C51.4561 31.1427 52.8194 32.2615 54.7741 32.2615C55.216 32.2764 55.6554 32.1893 56.0581 32.0069C56.4609 31.8245 56.8162 31.5518 57.0964 31.2098C57.1572 31.1075 57.2387 31.1491 57.2387 31.2498V31.7804C57.233 31.8595 57.2589 31.9375 57.3107 31.9975C57.3626 32.0574 57.4361 32.0943 57.5152 32.1001H59.2733C59.3523 32.1058 59.4304 32.0799 59.4904 32.028C59.5503 31.9762 59.5872 31.9026 59.5929 31.8236C59.5945 31.8092 59.5945 31.7947 59.5929 31.7804V18.1791C59.5986 18.1001 59.5727 18.022 59.5209 17.962C59.469 17.9021 59.3955 17.8652 59.3164 17.8595H57.5583C57.4793 17.8537 57.4012 17.8797 57.3412 17.9315C57.2813 17.9834 57.2444 18.0569 57.2387 18.136C57.2371 18.1503 57.2371 18.1648 57.2387 18.1791L57.2339 18.1759ZM56.724 29.2519C56.358 29.8625 55.8482 30.2109 55.1369 30.2109C54.7885 30.2266 54.4428 30.143 54.14 29.9698C53.8373 29.7966 53.5899 29.541 53.4268 29.2328C53.1071 28.6622 52.9377 27.8694 52.9377 26.9121C52.9377 25.8524 53.1407 25.0181 53.5275 24.4284C53.702 24.1573 53.9438 23.9361 54.2292 23.7863C54.5146 23.6365 54.8339 23.5631 55.1561 23.5733C55.4682 23.5692 55.7754 23.6504 56.0447 23.8081C56.314 23.9658 56.535 24.1941 56.6841 24.4683C57.0293 25.0389 57.1923 25.8524 57.1923 26.8913C57.1923 27.8694 57.0501 28.7037 56.724 29.2535V29.2519ZM65.9844 32.2647C68.0829 32.2647 69.6908 31.1043 70.2997 29.1704C70.5329 28.4191 70.6499 27.6365 70.6466 26.8497C70.6575 26.0603 70.5332 25.2749 70.279 24.5275C69.6476 22.6543 68.0813 21.5355 66.0036 21.5355C63.8251 21.5355 62.1965 22.6543 61.586 24.5482C61.3657 25.3018 61.258 26.0838 61.2663 26.8689C61.2603 27.6572 61.379 28.4416 61.6179 29.1928C62.2077 31.1107 63.8555 32.2663 65.994 32.2663L65.9844 32.2647ZM65.9844 30.2285C64.9264 30.2285 64.1528 29.6179 63.8475 28.5998C63.7069 28.0408 63.6381 27.4661 63.6429 26.8897C63.6349 26.3131 63.7037 25.738 63.8475 25.1795C64.1528 24.1614 64.9056 23.5717 65.9445 23.5717C66.9833 23.5717 67.7569 24.1614 68.0622 25.1795C68.2046 25.7382 68.2729 26.3132 68.2651 26.8897C68.2806 27.4679 68.2051 28.045 68.0414 28.5998C67.7361 29.6195 66.9833 30.2301 65.9844 30.2301V30.2285ZM77.1499 21.5722C76.6794 21.5627 76.2145 21.6755 75.8007 21.8996C75.3868 22.1238 75.0383 22.4516 74.7893 22.8509C74.727 22.9516 74.6662 22.9116 74.6662 22.8093V22.0102C74.6719 21.9311 74.646 21.853 74.5942 21.7931C74.5423 21.7331 74.4688 21.6962 74.3897 21.6905H72.6316C72.5526 21.6848 72.4745 21.7107 72.4145 21.7626C72.3546 21.8144 72.3177 21.888 72.312 21.967C72.3104 21.9814 72.3104 21.9958 72.312 22.0102V31.7596C72.3063 31.8387 72.3322 31.9168 72.384 31.9767C72.4359 32.0367 72.5094 32.0736 72.5885 32.0793H74.3466C74.4256 32.085 74.5037 32.0591 74.5637 32.0072C74.6236 31.9554 74.6605 31.8818 74.6662 31.8028C74.6678 31.7884 74.6678 31.774 74.6662 31.7596V26.0954C74.6662 24.8535 75.5629 24.1007 76.6625 24.04C77.0085 23.9842 77.3626 24.0049 77.6997 24.1007C77.9235 24.1614 78.0466 24.1215 78.0865 23.8961L78.4062 22.2068C78.4311 22.1283 78.4263 22.0434 78.3927 21.9683C78.3591 21.8932 78.299 21.833 78.224 21.7992C77.8853 21.6441 77.516 21.5676 77.1435 21.5754L77.1499 21.5722ZM80.7109 20.3911C81.6059 20.3911 82.2165 19.7806 82.2165 18.9047C82.2165 18.0289 81.6059 17.4391 80.7109 17.4391C79.8158 17.4391 79.1829 18.0497 79.1829 18.9047C79.1829 19.7598 79.8143 20.3927 80.7109 20.3927V20.3911ZM79.8558 32.0985H81.566C81.645 32.1042 81.7231 32.0783 81.783 32.0264C81.843 31.9746 81.8799 31.901 81.8856 31.822C81.8872 31.8076 81.8872 31.7931 81.8856 31.7788V22.0294C81.8913 21.9503 81.8654 21.8722 81.8136 21.8123C81.7617 21.7523 81.6882 21.7154 81.6091 21.7097H79.851C79.772 21.704 79.6939 21.7299 79.6339 21.7818C79.574 21.8336 79.5371 21.9071 79.5314 21.9862C79.5298 22.0005 79.5298 22.015 79.5314 22.0294V31.7788C79.5256 31.8579 79.5516 31.936 79.6034 31.9959C79.6553 32.0558 79.7288 32.0927 79.8079 32.0985H79.8558Z" fill="white"/>
<path d="M42.5249 21.7017H40.7668C40.6878 21.696 40.6097 21.7219 40.5497 21.7737C40.4898 21.8256 40.4529 21.8991 40.4472 21.9782C40.4456 21.9925 40.4456 22.007 40.4472 22.0214V31.7708C40.4415 31.8499 40.4674 31.9279 40.5192 31.9879C40.5711 32.0478 40.6446 32.0847 40.7237 32.0905H42.4818C42.5608 32.0962 42.6389 32.0703 42.6989 32.0184C42.7588 31.9666 42.7957 31.893 42.8014 31.814C42.803 31.7996 42.803 31.7851 42.8014 31.7708V25.6462C42.8014 24.4044 43.6006 23.5685 44.7561 23.5685C45.9117 23.5685 46.7108 24.4236 46.7108 25.6654V31.774C46.7051 31.8531 46.731 31.9311 46.7829 31.9911C46.8347 32.051 46.9083 32.0879 46.9873 32.0937C47.0016 32.0953 47.0161 32.0953 47.0305 32.0937H48.7406C48.8197 32.0994 48.8978 32.0735 48.9577 32.0216C49.0176 31.9697 49.0545 31.8962 49.0603 31.8172C49.0619 31.8028 49.0619 31.7883 49.0603 31.774V25.1779C49.0603 22.9196 47.6218 21.5355 45.4194 21.5339C44.3454 21.5339 43.5015 21.8807 42.9229 22.6335C42.8622 22.715 42.8014 22.6734 42.8014 22.5712V22.0214C42.8072 21.9423 42.7812 21.8642 42.7294 21.8043C42.6775 21.7443 42.604 21.7074 42.5249 21.7017Z" fill="white"/>
<path d="M36.2374 25.8268H34.0493C31.3419 25.8268 29.8139 27.0895 29.8139 29.1832C29.8139 31.3201 31.3626 32.2567 33.255 32.2567C34.4777 32.2567 35.475 31.8907 36.1878 31.1986C36.2693 31.1379 36.3301 31.1571 36.3301 31.2594V31.7692C36.3243 31.8483 36.3503 31.9264 36.4021 31.9863C36.454 32.0462 36.5275 32.0831 36.6066 32.0889H38.3647C38.4437 32.0946 38.5218 32.0687 38.5817 32.0168C38.6417 31.965 38.6786 31.8914 38.6843 31.8124C38.6859 31.798 38.6859 31.7836 38.6843 31.7692V24.9925C38.6843 22.9979 36.9933 21.5323 34.369 21.5323H34.3802C32.0387 21.5323 30.3685 22.6926 30.124 24.3005C30.1048 24.4427 30.2263 24.545 30.4308 24.5658L32.2625 24.7896C32.4654 24.8103 32.5677 24.7288 32.6285 24.5243C32.833 23.9345 33.4644 23.5653 34.4409 23.5653C35.7195 23.5653 36.3349 24.2046 36.3349 25.2339V25.7022C36.3371 25.7168 36.3363 25.7318 36.3326 25.7461C36.3288 25.7605 36.3222 25.7739 36.313 25.7856C36.3039 25.7972 36.2925 25.8069 36.2795 25.814C36.2664 25.8211 36.2521 25.8255 36.2374 25.8268ZM36.3301 28.5167C36.3301 29.6355 35.1905 30.3899 33.9071 30.3899C32.9289 30.3899 32.1761 29.9216 32.1761 29.0266C32.1761 28.0085 33.092 27.4587 34.5176 27.4587H36.2054C36.2339 27.455 36.2628 27.4627 36.2858 27.48C36.3088 27.4973 36.3241 27.5229 36.3285 27.5514C36.3301 27.5609 36.3301 27.5706 36.3285 27.5801L36.3301 28.5167Z" fill="white"/>
<path d="M26.0916 25.7309C27.7617 25.2419 28.8086 23.8785 28.8086 21.9846C28.8086 19.5009 27.1176 17.8291 24.594 17.8291H19.0719C18.9925 17.8238 18.9142 17.8503 18.8542 17.9028C18.7943 17.9552 18.7576 18.0293 18.7523 18.1088C18.7506 18.1221 18.7506 18.1355 18.7523 18.1487V31.7708C18.7466 31.8499 18.7725 31.928 18.8243 31.9879C18.8762 32.0478 18.9497 32.0847 19.0288 32.0905H20.7869C20.8659 32.0962 20.944 32.0703 21.004 32.0184C21.0639 31.9666 21.1008 31.893 21.1065 31.814C21.1081 31.7996 21.1081 31.7852 21.1065 31.7708V26.0746C21.1059 26.059 21.1083 26.0435 21.1137 26.0289C21.119 26.0143 21.1272 26.0009 21.1378 25.9895C21.1483 25.9781 21.161 25.9688 21.1751 25.9623C21.1892 25.9558 21.2045 25.9521 21.22 25.9515H23.6174C23.6468 25.9477 23.6766 25.9537 23.7022 25.9684C23.7279 25.9831 23.7481 26.0058 23.7597 26.033L26.4176 31.8491C26.4459 31.927 26.4992 31.9932 26.5692 32.0375C26.6392 32.0817 26.7219 32.1015 26.8044 32.0937H28.596C28.8406 32.0937 28.9429 31.9338 28.8406 31.7069L26.0308 25.8844C26.015 25.8625 26.0085 25.8353 26.0127 25.8087C26.0169 25.782 26.0315 25.7581 26.0532 25.7421C26.0652 25.736 26.0782 25.7322 26.0916 25.7309ZM24.2631 24.1199H21.2264C21.2122 24.1219 21.1978 24.1211 21.1839 24.1176C21.1701 24.114 21.1571 24.1077 21.1456 24.0991C21.1342 24.0905 21.1246 24.0797 21.1173 24.0674C21.1101 24.055 21.1053 24.0414 21.1033 24.0272C21.1018 24.0171 21.1018 24.0069 21.1033 23.9968V19.9868C21.1013 19.9726 21.1021 19.9581 21.1057 19.9443C21.1092 19.9304 21.1155 19.9174 21.1241 19.906C21.1327 19.8945 21.1435 19.8849 21.1559 19.8776C21.1682 19.8704 21.1819 19.8656 21.196 19.8637H24.2631C25.5657 19.8637 26.4416 20.7395 26.4416 22.0214C26.4416 23.2648 25.5657 24.1199 24.2631 24.1199Z" fill="white"/>
<path d="M70.2997 29.172C70.5329 28.4206 70.6498 27.638 70.6465 26.8513C70.6575 26.0619 70.5332 25.2765 70.2789 24.529C69.6476 22.6559 68.0813 21.5371 66.0035 21.5371C63.8251 21.5371 62.1965 22.6559 61.5859 24.5498C61.3656 25.3034 61.2579 26.0854 61.2663 26.8705C61.2604 27.6583 61.3791 28.4421 61.6179 29.1928C62.2076 31.1107 63.8555 32.2647 65.9907 32.2663C68.0845 32.2647 69.6907 31.1059 70.2997 29.172ZM68.0413 28.6014C67.7361 29.6195 66.9833 30.2301 65.9844 30.2301C64.9263 30.2301 64.1527 29.6195 63.8475 28.6014C63.7068 28.0424 63.6381 27.4677 63.6429 26.8913C63.6348 26.3147 63.7036 25.7396 63.8475 25.1811C64.1527 24.163 64.9055 23.5733 65.9444 23.5733C66.9833 23.5733 67.7568 24.163 68.0621 25.1811C68.2046 25.7398 68.2728 26.3148 68.2651 26.8913C68.2805 27.4695 68.205 28.0466 68.0413 28.6014Z" fill="white"/>
<path d="M74.3897 21.6921H72.6316C72.5526 21.6864 72.4745 21.7123 72.4146 21.7642C72.3546 21.816 72.3177 21.8895 72.312 21.9686C72.3104 21.9829 72.3104 21.9974 72.312 22.0118V31.7612C72.3063 31.8403 72.3322 31.9184 72.384 31.9783C72.4359 32.0382 72.5094 32.0751 72.5885 32.0809H74.3466C74.4256 32.0866 74.5037 32.0607 74.5637 32.0088C74.6236 31.957 74.6605 31.8834 74.6662 31.8044C74.6678 31.79 74.6678 31.7756 74.6662 31.7612V26.0953C74.6662 24.8535 75.5629 24.1007 76.6625 24.04C77.0085 23.9841 77.3626 24.0049 77.6998 24.1007C77.9235 24.1614 78.0466 24.1215 78.0865 23.8961L78.4062 22.2067C78.4311 22.1283 78.4263 22.0434 78.3927 21.9683C78.3591 21.8931 78.2991 21.833 78.224 21.7992C77.8859 21.6439 77.5171 21.5674 77.1452 21.5754C76.6754 21.5667 76.2115 21.6799 75.7986 21.904C75.3857 22.1281 75.0379 22.4554 74.7893 22.854C74.727 22.9547 74.6662 22.9148 74.6662 22.8125V22.0134C74.6693 21.9741 74.6646 21.9346 74.6523 21.8972C74.64 21.8597 74.6205 21.8251 74.5948 21.7952C74.5691 21.7654 74.5377 21.7409 74.5026 21.7232C74.4674 21.7055 74.429 21.6949 74.3897 21.6921Z" fill="white"/>
<path d="M79.8558 32.1001H81.566C81.645 32.1058 81.7231 32.0799 81.783 32.028C81.843 31.9761 81.8799 31.9026 81.8856 31.8236C81.8872 31.8092 81.8872 31.7947 81.8856 31.7804V22.0309C81.8913 21.9519 81.8654 21.8738 81.8135 21.8139C81.7617 21.7539 81.6882 21.717 81.6091 21.7113H79.851C79.7719 21.7056 79.6939 21.7315 79.6339 21.7833C79.574 21.8352 79.5371 21.9087 79.5313 21.9878C79.5298 22.0021 79.5298 22.0166 79.5313 22.0309V31.7804C79.5256 31.8595 79.5516 31.9375 79.6034 31.9975C79.6553 32.0574 79.7288 32.0943 79.8079 32.1001H79.8558Z" fill="white"/>
<path d="M80.7109 17.4407C79.8158 17.4407 79.1829 18.0512 79.1829 18.9063C79.1829 19.7614 79.8222 20.3927 80.7109 20.3927C81.5995 20.3927 82.2164 19.7822 82.2164 18.9063C82.2164 18.0305 81.6059 17.4407 80.7109 17.4407Z" fill="white"/>
<path d="M57.5151 32.0953H59.2732C59.3523 32.101 59.4304 32.0751 59.4903 32.0232C59.5503 31.9714 59.5872 31.8978 59.5929 31.8188C59.5945 31.8044 59.5945 31.7899 59.5929 31.7756V18.1743C59.5986 18.0953 59.5727 18.0172 59.5208 17.9572C59.469 17.8973 59.3955 17.8604 59.3164 17.8547H57.5583C57.4792 17.8489 57.4012 17.8749 57.3412 17.9267C57.2813 17.9786 57.2444 18.0521 57.2386 18.1312C57.2371 18.1455 57.2371 18.16 57.2386 18.1743V22.4896C57.2386 22.5919 57.1571 22.6127 57.0964 22.5312C56.8069 22.205 56.4493 21.9463 56.0489 21.7734C55.6484 21.6005 55.2149 21.5176 54.7789 21.5307C52.7635 21.5307 51.4401 22.6303 50.8504 24.3804C50.6028 25.1845 50.4857 26.023 50.5035 26.8641C50.4921 27.7267 50.6156 28.5857 50.8695 29.4102C51.4609 31.1411 52.8242 32.2599 54.7789 32.2599C55.2198 32.2743 55.6582 32.187 56.06 32.005C56.4619 31.8229 56.8165 31.5508 57.0964 31.2098C57.1571 31.1075 57.2386 31.1491 57.2386 31.2498V31.7804C57.2342 31.8587 57.2608 31.9355 57.3125 31.9944C57.3642 32.0533 57.437 32.0895 57.5151 32.0953ZM56.724 29.2551C56.358 29.8657 55.8482 30.2141 55.1369 30.2141C54.7885 30.2298 54.4428 30.1462 54.14 29.973C53.8373 29.7998 53.5899 29.5442 53.4268 29.236C53.1071 28.6654 52.9377 27.8726 52.9377 26.9153C52.9377 25.8556 53.1407 25.0213 53.5275 24.4315C53.702 24.1605 53.9437 23.9393 54.2291 23.7895C54.5146 23.6396 54.8339 23.5663 55.1561 23.5765C55.4681 23.5724 55.7754 23.6536 56.0447 23.8113C56.3139 23.969 56.535 24.1973 56.684 24.4715C57.0293 25.0421 57.1923 25.8556 57.1923 26.8945C57.1923 27.871 57.0501 28.7053 56.724 29.2551Z" fill="white"/>
<path d="M85.5753 20.1819H85.9801V18.0645H86.8969V17.7289H84.655V18.0645H85.5753V20.1819Z" fill="white"/>
<path d="M89.6022 20.1819H90V17.7289H89.4084C89.1178 18.4762 88.7407 19.3758 88.63 19.6975H88.6265C88.5539 19.445 88.1802 18.5212 87.8654 17.7289H87.2807V20.1819H87.6543V19.2097C87.6543 18.7945 87.637 18.286 87.6163 18.0057H87.6197C87.7547 18.4105 88.1698 19.4692 88.4259 20.1819H88.7788C89.1143 19.3239 89.4949 18.3932 89.616 18.0023H89.6195C89.6056 18.2617 89.6022 18.7046 89.6022 19.1544V20.1819Z" fill="white"/>
<defs>
<radialGradient id="paint0_angular_5_495" cx="0" cy="0" r="1" gradientUnits="userSpaceOnUse" gradientTransform="translate(21.4241 25.3985) rotate(-24.0415) scale(72.7907 90.4337)">
<stop offset="0.0830894" stop-color="#BE0001"/>
<stop offset="0.828103" stop-color="#F9291E"/>
</radialGradient>
</defs>
</svg>
