<svg width="14" height="15" viewBox="0 0 14 15" fill="none" xmlns="http://www.w3.org/2000/svg">
<path d="M13.3245 9.88243L11.7733 8.70667C11.8328 8.39123 11.8628 8.07098 11.8632 7.75V7.75C11.8622 7.42896 11.8315 7.1087 11.7715 6.79333L13.3236 5.61803C13.3691 5.58367 13.4004 5.53384 13.4117 5.47796C13.423 5.42207 13.4134 5.364 13.3847 5.3147L12.1546 3.1846C12.1262 3.13535 12.0807 3.09818 12.0268 3.0801C11.9729 3.06201 11.9142 3.06424 11.8618 3.08637L10.0651 3.84563C9.57825 3.42605 9.01769 3.10055 8.41195 2.8857L8.17045 0.9544C8.1634 0.897977 8.13598 0.846071 8.09336 0.808433C8.05074 0.770795 7.99584 0.750016 7.93898 0.75H5.47825C5.42138 0.750016 5.36649 0.770795 5.32386 0.808433C5.28124 0.846071 5.25383 0.897977 5.24678 0.9544L5.00528 2.8857C4.39945 3.1003 3.83879 3.42565 3.35188 3.84517L1.55521 3.0859C1.50282 3.06377 1.44414 3.06154 1.39022 3.07963C1.33629 3.09772 1.29083 3.13488 1.26238 3.18413L0.0315464 5.3154C0.00292234 5.3647 -0.00666312 5.42277 0.00459963 5.47866C0.0158624 5.53454 0.047194 5.58437 0.0926797 5.61873L1.64528 6.79333C1.52537 7.42548 1.52537 8.07452 1.64528 8.70667L0.0926797 9.88197C0.047194 9.91633 0.0158624 9.96616 0.00459963 10.022C-0.00666312 10.0779 0.00292234 10.136 0.0315464 10.1853L1.26168 12.3161C1.29013 12.3654 1.33559 12.4025 1.38952 12.4206C1.44344 12.4387 1.50212 12.4365 1.55451 12.4143L3.35118 11.6551C3.83828 12.0746 4.39919 12.3999 5.00528 12.6143L5.24655 14.5456C5.2536 14.602 5.28101 14.6539 5.32363 14.6916C5.36625 14.7292 5.42115 14.75 5.47801 14.75H7.93898C7.99584 14.75 8.05074 14.7292 8.09336 14.6916C8.13598 14.6539 8.1634 14.602 8.17045 14.5456L8.41195 12.6143C9.01777 12.3997 9.57843 12.0744 10.0653 11.6548L11.862 12.4141C11.9144 12.4362 11.9731 12.4385 12.027 12.4204C12.0809 12.4023 12.1264 12.3651 12.1548 12.3159L13.385 10.1851C13.4135 10.1359 13.4231 10.0781 13.4119 10.0223C13.4008 9.96661 13.3697 9.91687 13.3245 9.88243ZM6.70861 10.3167C6.20097 10.3167 5.70474 10.1661 5.28265 9.8841C4.86056 9.60208 4.53159 9.20122 4.33732 8.73222C4.14306 8.26322 4.09223 7.74715 4.19126 7.24927C4.2903 6.75138 4.53475 6.29405 4.89371 5.93509C5.25266 5.57614 5.71 5.33169 6.20788 5.23265C6.70577 5.13362 7.22184 5.18444 7.69083 5.37871C8.15983 5.57297 8.56069 5.90195 8.84272 6.32404C9.12475 6.74612 9.27528 7.24236 9.27528 7.75C9.27528 8.43072 9.00486 9.08356 8.52352 9.56491C8.04218 10.0463 7.38934 10.3167 6.70861 10.3167Z" fill="#EC843C"/>
</svg>
