<svg width="15" height="18" viewBox="0 0 15 18" fill="none" xmlns="http://www.w3.org/2000/svg">
<path d="M13.8012 7.49986H4.70122V4.63686C4.70988 3.90771 5.00572 3.21139 5.52454 2.69899C6.04337 2.18659 6.74332 1.89944 7.47252 1.89986H7.56422C8.29726 1.90817 8.99708 2.20689 9.51018 2.73048C10.0233 3.25408 10.3078 3.9598 10.3012 4.69286L11.7012 4.70686C11.7105 3.60157 11.2809 2.53775 10.5065 1.74897C9.7322 0.960201 8.6765 0.510951 7.57122 0.499863H7.50822C6.96042 0.493394 6.41675 0.595242 5.90844 0.799553C5.40012 1.00386 4.9372 1.30661 4.54626 1.69039C4.15532 2.07418 3.84407 2.53143 3.63041 3.03589C3.41674 3.54034 3.30487 4.08204 3.30122 4.62986V7.49986H1.20122C1.01557 7.49986 0.837521 7.57361 0.706246 7.70489C0.57497 7.83616 0.501221 8.01421 0.501221 8.19986V16.5999C0.501221 16.7855 0.57497 16.9636 0.706246 17.0948C0.837521 17.2261 1.01557 17.2999 1.20122 17.2999H13.8012C13.9869 17.2999 14.1649 17.2261 14.2962 17.0948C14.4275 16.9636 14.5012 16.7855 14.5012 16.5999V8.19986C14.5012 8.01421 14.4275 7.83616 14.2962 7.70489C14.1649 7.57361 13.9869 7.49986 13.8012 7.49986ZM7.50122 13.7999C7.22433 13.7999 6.95365 13.7178 6.72342 13.5639C6.49319 13.4101 6.31375 13.1914 6.20779 12.9356C6.10183 12.6798 6.0741 12.3983 6.12812 12.1267C6.18214 11.8552 6.31548 11.6057 6.51127 11.4099C6.70706 11.2141 6.95652 11.0808 7.22809 11.0268C7.49967 10.9727 7.78116 11.0005 8.03698 11.1064C8.29279 11.2124 8.51144 11.3918 8.66528 11.6221C8.81911 11.8523 8.90122 12.123 8.90122 12.3999C8.90122 12.7712 8.75372 13.1273 8.49117 13.3898C8.22862 13.6524 7.87252 13.7999 7.50122 13.7999Z" fill="#DA021B"/>
</svg>
