<svg width="14" height="17" viewBox="0 0 14 17" fill="none" xmlns="http://www.w3.org/2000/svg">
<path d="M13.3 6.99986H4.2V4.13686C4.20866 3.40771 4.5045 2.71139 5.02332 2.19899C5.54215 1.68659 6.2421 1.39944 6.9713 1.39986H7.063C7.79604 1.40817 8.49586 1.70689 9.00896 2.23048C9.52205 2.75408 9.80653 3.4598 9.8 4.19286L9.78125 7.17188H11.2031L11.2 4.20686C11.2093 3.10157 10.7797 2.03775 10.0053 1.24897C9.23098 0.460201 8.17528 0.0109507 7.07 -0.000137404H7.007C6.4592 -0.00660554 5.91553 0.0952422 5.40722 0.299553C4.8989 0.503864 4.43598 0.80661 4.04504 1.19039C3.6541 1.57418 3.34285 2.03143 3.12919 2.53589C2.91552 3.04034 2.80365 3.58204 2.8 4.12986V6.99986H0.7C0.514348 6.99986 0.336301 7.07361 0.205025 7.20489C0.0737498 7.33616 0 7.51421 0 7.69986V16.0999C0 16.2855 0.0737498 16.4636 0.205025 16.5948C0.336301 16.7261 0.514348 16.7999 0.7 16.7999H13.3C13.4857 16.7999 13.6637 16.7261 13.795 16.5948C13.9263 16.4636 14 16.2855 14 16.0999V7.69986C14 7.51421 13.9263 7.33616 13.795 7.20489C13.6637 7.07361 13.4857 6.99986 13.3 6.99986ZM7 13.2999C6.72311 13.2999 6.45243 13.2178 6.2222 13.0639C5.99197 12.9101 5.81253 12.6914 5.70657 12.4356C5.60061 12.1798 5.57288 11.8983 5.6269 11.6267C5.68092 11.3552 5.81426 11.1057 6.01005 10.9099C6.20584 10.7141 6.4553 10.5808 6.72687 10.5268C6.99845 10.4727 7.27994 10.5005 7.53576 10.6064C7.79157 10.7124 8.01022 10.8918 8.16406 11.1221C8.31789 11.3523 8.4 11.623 8.4 11.8999C8.4 12.2712 8.2525 12.6273 7.98995 12.8898C7.7274 13.1524 7.3713 13.2999 7 13.2999Z" fill="#60AD59"/>
</svg>
